<svg width="79" height="23" viewBox="0 0 79 23" fill="none" xmlns="http://www.w3.org/2000/svg">
<rect y="0.5" width="79" height="22" rx="11" fill="#FF3B30"/>
<path d="M12.5293 15.6406C10.0215 15.6406 8.49805 14 8.49805 11.2695C8.49805 8.54492 10.0508 6.89844 12.4824 6.89844C14.0645 6.89844 15.2891 7.60156 15.8691 8.82031C15.9863 9.04297 16.0449 9.27148 16.0449 9.48242C16.0449 9.94531 15.7344 10.2441 15.2656 10.2441C14.8672 10.2441 14.6152 10.0684 14.4219 9.6582C14.0352 8.79688 13.3438 8.36328 12.5 8.36328C11.1641 8.36328 10.3027 9.48242 10.3027 11.2637C10.3027 13.0684 11.1523 14.1816 12.5059 14.1816C13.3965 14.1816 14.0645 13.7773 14.4453 12.9277C14.627 12.5293 14.8496 12.3711 15.2246 12.3711C15.7227 12.3711 16.0508 12.6875 16.0508 13.1562C16.0508 13.3555 16.0039 13.543 15.916 13.748C15.3887 14.9199 14.1289 15.6406 12.5293 15.6406ZM19.1328 15.5996C17.9375 15.5996 17.0293 14.8262 17.0293 13.6953C17.0293 12.5527 17.9082 11.8906 19.4785 11.7969L21.0605 11.7031V11.2871C21.0605 10.7012 20.6504 10.3613 20.0059 10.3613C19.4844 10.3613 19.168 10.5312 18.7871 11.0234C18.5996 11.2344 18.3828 11.3398 18.1074 11.3398C17.6914 11.3398 17.3926 11.0703 17.3926 10.6836C17.3926 10.5488 17.4219 10.4258 17.4805 10.2969C17.7734 9.54688 18.7812 9.08398 20.082 9.08398C21.6934 9.08398 22.7422 9.91602 22.7422 11.1816V14.7617C22.7422 15.3301 22.3965 15.623 21.9102 15.623C21.4473 15.623 21.125 15.3652 21.0898 14.8613V14.5391H21.0547C20.7031 15.207 19.918 15.5996 19.1328 15.5996ZM19.6953 14.3633C20.4453 14.3633 21.0605 13.877 21.0605 13.1973V12.7402L19.7363 12.8223C19.0977 12.8691 18.7344 13.1562 18.7344 13.6016C18.7344 14.0703 19.1211 14.3633 19.6953 14.3633ZM24.2363 17.2578C23.7441 17.2578 23.457 16.9707 23.457 16.4785V14.9258C23.457 14.5273 23.6328 14.2754 23.9434 14.2051H23.9551C24.4121 13.9473 24.5703 13.2266 24.6289 12.377L24.7754 10.1445C24.8164 9.56445 25.1328 9.21875 25.6602 9.21875H28.9766C29.5332 9.21875 29.8613 9.55859 29.8613 10.1387V14.2051H30.0957C30.5527 14.2051 30.8457 14.5391 30.8457 15.0547V16.4785C30.8457 16.9707 30.5586 17.2578 30.0723 17.2578C29.5801 17.2578 29.293 16.9707 29.293 16.4785V15.5H25.0098V16.4785C25.0098 16.9707 24.7227 17.2578 24.2363 17.2578ZM28.1562 14.2051V10.502H26.2754L26.1348 12.4883C26.0879 13.1562 25.959 13.7363 25.6777 14.1582V14.2051H28.1562ZM33.418 15.5996C32.2227 15.5996 31.3145 14.8262 31.3145 13.6953C31.3145 12.5527 32.1934 11.8906 33.7637 11.7969L35.3457 11.7031V11.2871C35.3457 10.7012 34.9355 10.3613 34.291 10.3613C33.7695 10.3613 33.4531 10.5312 33.0723 11.0234C32.8848 11.2344 32.668 11.3398 32.3926 11.3398C31.9766 11.3398 31.6777 11.0703 31.6777 10.6836C31.6777 10.5488 31.707 10.4258 31.7656 10.2969C32.0586 9.54688 33.0664 9.08398 34.3672 9.08398C35.9785 9.08398 37.0273 9.91602 37.0273 11.1816V14.7617C37.0273 15.3301 36.6816 15.623 36.1953 15.623C35.7324 15.623 35.4102 15.3652 35.375 14.8613V14.5391H35.3398C34.9883 15.207 34.2031 15.5996 33.418 15.5996ZM33.9805 14.3633C34.7305 14.3633 35.3457 13.877 35.3457 13.1973V12.7402L34.0215 12.8223C33.3828 12.8691 33.0195 13.1562 33.0195 13.6016C33.0195 14.0703 33.4062 14.3633 33.9805 14.3633ZM39.0898 15.623C38.5625 15.623 38.2402 15.3008 38.2402 14.7676V9.95117C38.2402 9.41211 38.5625 9.08984 39.0898 9.08984C39.6172 9.08984 39.9453 9.41797 39.9453 9.95117V11.7441H39.9922L42.1191 9.43555C42.3359 9.17773 42.5 9.08984 42.7695 9.08984C43.1973 9.08984 43.5312 9.40039 43.5312 9.79297C43.5312 9.99805 43.4727 10.1621 43.3145 10.3262L41.5215 12.125L43.4375 14.2695C43.6016 14.457 43.666 14.627 43.666 14.832C43.666 15.2832 43.332 15.623 42.875 15.623C42.5293 15.623 42.3184 15.4824 42.0957 15.2129L39.9922 12.8047H39.9453V14.7676C39.9453 15.3008 39.6172 15.623 39.0898 15.623ZM46.625 15.5996C45.4297 15.5996 44.5215 14.8262 44.5215 13.6953C44.5215 12.5527 45.4004 11.8906 46.9707 11.7969L48.5527 11.7031V11.2871C48.5527 10.7012 48.1426 10.3613 47.498 10.3613C46.9766 10.3613 46.6602 10.5312 46.2793 11.0234C46.0918 11.2344 45.875 11.3398 45.5996 11.3398C45.1836 11.3398 44.8848 11.0703 44.8848 10.6836C44.8848 10.5488 44.9141 10.4258 44.9727 10.2969C45.2656 9.54688 46.2734 9.08398 47.5742 9.08398C49.1855 9.08398 50.2344 9.91602 50.2344 11.1816V14.7617C50.2344 15.3301 49.8887 15.623 49.4023 15.623C48.9395 15.623 48.6172 15.3652 48.582 14.8613V14.5391H48.5469C48.1953 15.207 47.4102 15.5996 46.625 15.5996ZM47.1875 14.3633C47.9375 14.3633 48.5527 13.877 48.5527 13.1973V12.7402L47.2285 12.8223C46.5898 12.8691 46.2266 13.1562 46.2266 13.6016C46.2266 14.0703 46.6133 14.3633 47.1875 14.3633Z" fill="white"/>
<path d="M62.5879 17.1113C62.3945 17.1113 62.1016 16.9414 61.832 16.7656C58.6094 14.6621 56.4941 12.1543 56.4941 9.64062C56.4941 7.33789 58.0938 5.79102 60.0156 5.79102C61.2109 5.79102 62.0781 6.45312 62.5879 7.4082C63.1035 6.44727 63.9707 5.79102 65.166 5.79102C67.0879 5.79102 68.6875 7.33789 68.6875 9.64062C68.6875 12.1543 66.5723 14.6621 63.3496 16.7656C63.0801 16.9414 62.7871 17.1113 62.5879 17.1113Z" fill="white"/>
</svg>
